<svg width="89" height="89" viewBox="0 0 89 89" fill="none" xmlns="http://www.w3.org/2000/svg">
<g clip-path="url(#clip0_334_1471)">
<g filter="url(#filter0_d_334_1471)">
<path d="M79.7292 14.8333H69.8403V22.25C69.8403 22.9642 69.6996 23.6715 69.4263 24.3313C69.1529 24.9912 68.7523 25.5908 68.2473 26.0958C67.7422 26.6009 67.1426 27.0015 66.4828 27.2748C65.8229 27.5482 65.1156 27.6888 64.4014 27.6888C63.6871 27.6888 62.9799 27.5482 62.32 27.2748C61.6601 27.0015 61.0606 26.6009 60.5555 26.0958C60.0505 25.5908 59.6498 24.9912 59.3765 24.3313C59.1032 23.6715 58.9625 22.9642 58.9625 22.25V14.8333H30.1611V22.25C30.1611 23.6924 29.5881 25.0758 28.5681 26.0958C27.5481 27.1158 26.1647 27.6888 24.7222 27.6888C23.2797 27.6888 21.8963 27.1158 20.8763 26.0958C19.8564 25.0758 19.2833 23.6924 19.2833 22.25V14.8333H9.39444C8.80611 14.8266 8.22241 14.938 7.67787 15.1608C7.13332 15.3836 6.63899 15.7133 6.2241 16.1305C5.80921 16.5477 5.4822 17.0439 5.26241 17.5896C5.04261 18.1354 4.93449 18.7197 4.94444 19.308V74.6363C4.93462 75.2143 5.03875 75.7884 5.25087 76.3261C5.46299 76.8638 5.77895 77.3544 6.18071 77.7699C6.58247 78.1854 7.06215 78.5178 7.59236 78.7479C8.12257 78.978 8.69292 79.1014 9.27083 79.1111H79.7292C80.3071 79.1014 80.8774 78.978 81.4076 78.7479C81.9378 78.5178 82.4175 78.1854 82.8193 77.7699C83.221 77.3544 83.537 76.8638 83.7491 76.3261C83.9613 75.7884 84.0654 75.2143 84.0555 74.6363V19.308C84.0654 18.7301 83.9613 18.1559 83.7491 17.6183C83.537 17.0806 83.221 16.59 82.8193 16.1744C82.4175 15.7589 81.9378 15.4266 81.4076 15.1965C80.8774 14.9664 80.3071 14.843 79.7292 14.8333ZM24.7222 64.2777H19.7778V59.3333H24.7222V64.2777ZM24.7222 51.9166H19.7778V46.9722H24.7222V51.9166ZM24.7222 39.5555H19.7778V34.6111H24.7222V39.5555ZM39.5556 64.2777H34.6111V59.3333H39.5556V64.2777ZM39.5556 51.9166H34.6111V46.9722H39.5556V51.9166ZM39.5556 39.5555H34.6111V34.6111H39.5556V39.5555ZM54.3889 64.2777H49.4444V59.3333H54.3889V64.2777ZM54.3889 51.9166H49.4444V46.9722H54.3889V51.9166ZM54.3889 39.5555H49.4444V34.6111H54.3889V39.5555ZM69.2222 64.2777H64.2778V59.3333H69.2222V64.2777ZM69.2222 51.9166H64.2778V46.9722H69.2222V51.9166ZM69.2222 39.5555H64.2778V34.6111H69.2222V39.5555Z" fill="#2C4A83"/>
</g>
<path d="M24.7222 24.7221C25.3779 24.7221 26.0067 24.4616 26.4703 23.998C26.934 23.5344 27.1944 22.9056 27.1944 22.2499V7.41656C27.1944 6.76088 26.934 6.13206 26.4703 5.66843C26.0067 5.2048 25.3779 4.94434 24.7222 4.94434C24.0665 4.94434 23.4377 5.2048 22.9741 5.66843C22.5105 6.13206 22.25 6.76088 22.25 7.41656V22.2499C22.25 22.9056 22.5105 23.5344 22.9741 23.998C23.4377 24.4616 24.0665 24.7221 24.7222 24.7221Z" fill="#74A6FF"/>
<path d="M64.2778 24.7221C64.9335 24.7221 65.5623 24.4616 66.0259 23.998C66.4895 23.5344 66.75 22.9056 66.75 22.2499V7.41656C66.75 6.76088 66.4895 6.13206 66.0259 5.66843C65.5623 5.2048 64.9335 4.94434 64.2778 4.94434C63.6221 4.94434 62.9933 5.2048 62.5297 5.66843C62.066 6.13206 61.8056 6.76088 61.8056 7.41656V22.2499C61.8056 22.9056 62.066 23.5344 62.5297 23.998C62.9933 24.4616 63.6221 24.7221 64.2778 24.7221Z" fill="#74A6FF"/>
</g>
<defs>
<filter id="filter0_d_334_1471" x="0.94381" y="14.833" width="87.1124" height="72.2781" filterUnits="userSpaceOnUse" color-interpolation-filters="sRGB">
<feFlood flood-opacity="0" result="BackgroundImageFix"/>
<feColorMatrix in="SourceAlpha" type="matrix" values="0 0 0 0 0 0 0 0 0 0 0 0 0 0 0 0 0 0 127 0" result="hardAlpha"/>
<feOffset dy="4"/>
<feGaussianBlur stdDeviation="2"/>
<feComposite in2="hardAlpha" operator="out"/>
<feColorMatrix type="matrix" values="0 0 0 0 0 0 0 0 0 0 0 0 0 0 0 0 0 0 0.25 0"/>
<feBlend mode="normal" in2="BackgroundImageFix" result="effect1_dropShadow_334_1471"/>
<feBlend mode="normal" in="SourceGraphic" in2="effect1_dropShadow_334_1471" result="shape"/>
</filter>
<clipPath id="clip0_334_1471">
<rect width="89" height="89" fill="white"/>
</clipPath>
</defs>
</svg>
