<svg width="102" height="102" viewBox="0 0 102 102" fill="none" xmlns="http://www.w3.org/2000/svg">
<path d="M12.75 51C8.075 51 4.25 47.175 4.25 42.5V21.25C4.25 16.575 8.075 12.75 12.75 12.75H46.75C51.425 12.75 55.25 16.575 55.25 21.25V42.5C55.25 47.175 51.425 51 46.75 51H38.25V63.75L25.5 51H12.75ZM89.25 76.5C93.925 76.5 97.75 72.675 97.75 68V46.75C97.75 42.075 93.925 38.25 89.25 38.25H63.75V42.5C63.75 51.85 56.1 59.5 46.75 59.5V68C46.75 72.675 50.575 76.5 55.25 76.5H63.75V89.25L76.5 76.5H89.25Z" fill="#2C4A83"/>
</svg>
