<svg width="100" height="72" viewBox="0 0 100 72" fill="none" xmlns="http://www.w3.org/2000/svg">
<g filter="url(#filter0_d_334_1468)">
<path d="M71.5288 0C76.2912 0 79.9469 3.36112 82.6553 6.97741L83.5725 8.25727L84.4122 9.53314C84.6791 9.95045 84.9346 10.3598 85.1786 10.7612C88.5674 16.371 91.517 23.6953 93.4676 30.9319C95.4052 38.1126 96.4774 45.6123 95.7928 51.5093C95.1038 57.4301 91.8098 63.7935 84.4466 63.7935C77.8413 63.7935 72.6354 60.5241 68.407 57.3304L63.6274 53.6184C59.6531 50.6042 55.3041 47.8451 49.9992 47.8451C44.6943 47.8451 40.341 50.6042 36.3752 53.6184L31.5956 57.3264C27.3586 60.5241 22.1527 63.7935 15.5517 63.7935C8.18425 63.7935 4.89021 57.4301 4.20557 51.5093C3.52523 45.6084 4.5931 38.1126 6.53077 30.9319C8.48136 23.6953 11.4309 16.371 14.8197 10.7612L15.5861 9.52915L16.4258 8.25727L17.343 6.97741C20.0514 3.36112 23.7071 0 28.4695 0C30.6655 0 32.8486 0.494399 34.993 1.07651L37.5464 1.80217C37.9684 1.92178 38.3875 2.03608 38.8037 2.14506C42.5284 3.13386 46.3391 3.98709 49.9992 3.98709C53.6592 3.98709 57.47 3.13386 61.1946 2.14506L65.0053 1.0805C67.1497 0.494399 69.3328 0 71.5288 0ZM34.9284 15.9484C32.0734 15.9484 29.3353 16.9985 27.3165 18.8679C25.2977 20.7372 24.1636 23.2725 24.1636 25.9161C24.1636 28.5597 25.2977 31.095 27.3165 32.9644C29.3353 34.8337 32.0734 35.8838 34.9284 35.8838C37.7834 35.8838 40.5215 34.8337 42.5403 32.9644C44.5591 31.095 45.6932 28.5597 45.6932 25.9161C45.6932 23.2725 44.5591 20.7372 42.5403 18.8679C40.5215 16.9985 37.7834 15.9484 34.9284 15.9484ZM65.0699 15.9484C63.9279 15.9484 62.8327 16.3684 62.0252 17.1162C61.2177 17.8639 60.764 18.878 60.764 19.9355V21.929H58.611C57.469 21.929 56.3738 22.3491 55.5663 23.0968C54.7588 23.8445 54.3051 24.8587 54.3051 25.9161C54.3051 26.9735 54.7588 27.9877 55.5663 28.7354C56.3738 29.4831 57.469 29.9032 58.611 29.9032H60.764V31.8967C60.764 32.9542 61.2177 33.9683 62.0252 34.716C62.8327 35.4638 63.9279 35.8838 65.0699 35.8838C66.2119 35.8838 67.3072 35.4638 68.1147 34.716C68.9222 33.9683 69.3759 32.9542 69.3759 31.8967V29.9032H71.5288C72.6708 29.9032 73.7661 29.4831 74.5736 28.7354C75.3811 27.9877 75.8348 26.9735 75.8348 25.9161C75.8348 24.8587 75.3811 23.8445 74.5736 23.0968C73.7661 22.3491 72.6708 21.929 71.5288 21.929H69.3759V19.9355C69.3759 18.878 68.9222 17.8639 68.1147 17.1162C67.3072 16.3684 66.2119 15.9484 65.0699 15.9484ZM34.9284 23.9226C35.4994 23.9226 36.047 24.1326 36.4508 24.5064C36.8545 24.8803 37.0814 25.3874 37.0814 25.9161C37.0814 26.4448 36.8545 26.9519 36.4508 27.3258C36.047 27.6996 35.4994 27.9096 34.9284 27.9096C34.3574 27.9096 33.8098 27.6996 33.406 27.3258C33.0023 26.9519 32.7754 26.4448 32.7754 25.9161C32.7754 25.3874 33.0023 24.8803 33.406 24.5064C33.8098 24.1326 34.3574 23.9226 34.9284 23.9226Z" fill="#2C4A83"/>
</g>
<defs>
<filter id="filter0_d_334_1468" x="0" y="0" width="100" height="71.7935" filterUnits="userSpaceOnUse" color-interpolation-filters="sRGB">
<feFlood flood-opacity="0" result="BackgroundImageFix"/>
<feColorMatrix in="SourceAlpha" type="matrix" values="0 0 0 0 0 0 0 0 0 0 0 0 0 0 0 0 0 0 127 0" result="hardAlpha"/>
<feOffset dy="4"/>
<feGaussianBlur stdDeviation="2"/>
<feComposite in2="hardAlpha" operator="out"/>
<feColorMatrix type="matrix" values="0 0 0 0 0 0 0 0 0 0 0 0 0 0 0 0 0 0 0.25 0"/>
<feBlend mode="normal" in2="BackgroundImageFix" result="effect1_dropShadow_334_1468"/>
<feBlend mode="normal" in="SourceGraphic" in2="effect1_dropShadow_334_1468" result="shape"/>
</filter>
</defs>
</svg>
