<svg width="74" height="74" viewBox="0 0 74 74" fill="none" xmlns="http://www.w3.org/2000/svg">
<path d="M12.4558 41.3673C13.2619 41.3673 13.8803 41.1506 14.6547 40.5929L22.7378 34.6148C23.0643 34.3833 23.3304 34.0768 23.5137 33.7211C23.697 33.3653 23.7921 32.9707 23.791 32.5705C23.791 31.1156 22.6453 30.0624 21.3437 30.0624C20.7557 30.0624 20.2298 30.2171 19.7646 30.5884L15.6153 33.81C16.3727 27.6463 19.3621 21.9736 24.0183 17.8645C28.6745 13.7553 34.6749 11.4946 40.885 11.5096C44.2363 11.5011 47.5564 12.1543 50.6546 13.4319C53.7529 14.7095 56.5684 16.5863 58.9396 18.9546C61.3109 21.3229 63.1911 24.1361 64.4726 27.2327C65.754 30.3294 66.4114 33.6486 66.4071 36.9999C66.4388 51.1524 55.0719 62.5207 40.8863 62.5207C32.9895 62.5207 26.1445 58.9264 21.4679 53.5085C20.7861 52.7329 19.9813 52.3919 19.2083 52.3919C17.9371 52.3919 16.761 53.4147 16.761 54.8392C16.761 55.5211 17.0702 56.2954 17.7521 57.1306C23.1713 63.5726 31.6575 67.7549 40.8863 67.7549C57.7345 67.7549 71.6413 53.8178 71.6413 36.9999C71.6413 20.2138 57.7042 6.24634 40.8863 6.24634C25.308 6.24634 12.177 18.2621 10.3494 33.4387L7.0353 28.7304C6.53976 28.0182 5.79712 27.5544 4.89855 27.5544C3.47405 27.5544 2.35876 28.5758 2.35876 30.0003C2.35876 30.6201 2.54376 31.2081 2.91641 31.6733L9.42048 39.6943C10.4115 40.9338 11.2176 41.3673 12.4558 41.3673ZM33.0516 47.1591C33.0516 48.5519 34.599 49.202 35.9627 48.3973L52.5625 38.579C53.7703 37.8668 53.7385 36.1635 52.5625 35.4512L35.9627 25.633C34.6928 24.8904 33.0516 25.448 33.0516 26.8725V47.1591Z" fill="#2C4A83"/>
</svg>
