<svg width="29" height="29" viewBox="0 0 29 29" fill="none" xmlns="http://www.w3.org/2000/svg">
<g clip-path="url(#clip0_25_32)">
<path fill-rule="evenodd" clip-rule="evenodd" d="M2.88493 4.91629L4.31526 13.1407H13.1407C13.8914 13.1407 14.5 13.7493 14.5 14.5C14.5 15.2508 13.8914 15.8594 13.1407 15.8594H4.31526L2.88493 24.0837L25.247 14.5L2.88493 4.91629ZM1.79211 14.5L0.115418 4.85905C-0.0201289 4.07966 0.232066 3.28304 0.791456 2.72365C1.49432 2.0208 2.55429 1.81666 3.46792 2.20821L27.7597 12.619C28.5121 12.9415 29 13.6814 29 14.5C29 15.3187 28.5121 16.0586 27.7597 16.3811L3.46792 26.7918C2.55429 27.1835 1.49432 26.9792 0.791456 26.2765C0.232066 25.717 -0.0201293 24.9204 0.115418 24.141L1.79211 14.5Z" fill="#007AFF"/>
</g>
<defs>
<clipPath id="clip0_25_32">
<rect width="29" height="29" fill="white"/>
</clipPath>
</defs>
</svg>
