<svg width="16" height="16" viewBox="0 0 16 16" fill="none" xmlns="http://www.w3.org/2000/svg">
<path d="M7.63755 5.3802L2.32755 10.9532C2.2389 11.0462 2.18945 11.1697 2.18945 11.2982C2.18945 11.4267 2.2389 11.5502 2.32755 11.6432L2.33355 11.6492C2.37652 11.6944 2.42825 11.7305 2.48558 11.7551C2.54291 11.7797 2.60466 11.7924 2.66705 11.7924C2.72944 11.7924 2.79118 11.7797 2.84852 11.7551C2.90585 11.7305 2.95758 11.6944 3.00055 11.6492L8.00055 6.4012L12.9985 11.6492C13.0415 11.6944 13.0932 11.7305 13.1506 11.7551C13.2079 11.7797 13.2697 11.7924 13.332 11.7924C13.3944 11.7924 13.4562 11.7797 13.5135 11.7551C13.5708 11.7305 13.6226 11.6944 13.6655 11.6492L13.6715 11.6432C13.7602 11.5502 13.8096 11.4267 13.8096 11.2982C13.8096 11.1697 13.7602 11.0462 13.6715 10.9532L8.36155 5.3802C8.31485 5.33119 8.25869 5.29217 8.19646 5.26551C8.13424 5.23885 8.06724 5.2251 7.99955 5.2251C7.93185 5.2251 7.86486 5.23885 7.80263 5.26551C7.74041 5.29217 7.68425 5.33119 7.63755 5.3802Z" fill="black"/>
</svg>
